<?xml version="1.0" encoding="utf-8"?>
<!-- Generator: Adobe Illustrator 22.0.0, SVG Export Plug-In . SVG Version: 6.00 Build 0)  -->
<svg version="1.1" id="Calque_1" xmlns="http://www.w3.org/2000/svg" xmlns:xlink="http://www.w3.org/1999/xlink" x="0px" y="0px"
	 viewBox="0 0 1700.8 2834.6" style="enable-background:new 0 0 1700.8 2834.6;" xml:space="preserve">
<style type="text/css">
	.st0{fill:#CCCCCC;stroke:#000000;stroke-width:3;stroke-miterlimit:10;}
	.st1{fill:#FFFFFF;stroke:#000000;stroke-width:3;stroke-miterlimit:10;}
	.st2{fill:#B3B3B3;stroke:#000000;stroke-width:3;stroke-miterlimit:10;}
	.st3{font-family:'HarlowSolid';}
	.st4{font-size:140.3188px;}
	.st5{fill:#FF0000;}
	.st6{fill:#FF0000;stroke:#000000;stroke-width:3;stroke-miterlimit:10;}
	.st7{fill:#E6E6E6;stroke:#000000;stroke-width:3;stroke-miterlimit:10;}
	.st8{stroke:#000000;stroke-width:3;stroke-miterlimit:10;}
</style>
<path class="st0" d="M523.3,1426.3l476.9,210.1c6,2.7,13.2-0.1,15.8-6.1l392.3-890.2c2.7-6-0.1-13.2-6.1-15.8L925.2,514.1
	c-6-2.7-13.2,0.1-15.8,6.1l-392.3,890.2C514.5,1416.5,517.2,1423.6,523.3,1426.3z"/>
<path class="st1" d="M568.9,1419.5l408.6,180.1c6,2.7,13.2-0.1,15.8-6.1l354.4-804.3c2.7-6-0.1-13.2-6.1-15.8L932.9,593.2
	c-6-2.7-13.2,0.1-15.8,6.1l-354.4,804.3C560.1,1409.7,562.8,1416.8,568.9,1419.5z"/>
<path class="st2" d="M1187.9,688.1l-91.5-40.3c-5.7-2.5-8.3-9.2-5.8-14.9l0,0c2.5-5.7,9.2-8.3,14.9-5.8l91.5,40.3
	c5.7,2.5,8.3,9.2,5.8,14.9v0C1200.3,688,1193.6,690.6,1187.9,688.1z"/>
<text transform="matrix(1.2555 3.104535e-02 -2.472000e-02 0.9997 526.4869 1247.2373)" class="st3 st4">Easy Shop</text>
<text transform="matrix(1.2555 3.104535e-02 -2.472000e-02 0.9997 520.5502 1230.6207)" class="st5 st3 st4">Easy Shop</text>
<path class="st6" d="M1040.5,1138.6c-56.2-24.8-112.4-49.5-168.7-74.3c-3.5-3.3-7-6.6-10.5-9.8c15.1-47.2,30.2-94.5,45.3-141.7
	c-6.2-0.4-11.3-4.7-11.7-9.3c-0.5-5.1,4.9-9.5,11.9-8.6c75,32.6,150.1,65.2,225.1,97.7c6.5,2.4,9,9.3,6.2,13.9
	c-2.7,4.3-9.9,5.9-15.4,2.4c-5.5,9.8-11.2,19.7-17.2,29.7C1084.4,1074.1,1062.6,1107.5,1040.5,1138.6z"/>
<path class="st7" d="M1037.5,976.3L1037.5,976.3c2.4,2.4,6.5,2.7,9.1,0.6l79.4-64.5c2.6-2.1,2.7-5.8,0.3-8.3l0,0
	c-2.4-2.4-6.5-2.7-9.1-0.6l-79.4,64.5C1035.2,970.2,1035.1,973.9,1037.5,976.3z"/>
<path class="st7" d="M993.1,960.1L993.1,960.1c3.5-0.3,6.1-3.1,5.7-6.3L986,855.7c-0.4-3.2-3.6-5.6-7.2-5.4l0,0
	c-3.5,0.3-6.1,3.1-5.7,6.3l12.8,98.1C986.4,957.9,989.6,960.3,993.1,960.1z"/>
<path class="st7" d="M891.2,1050.9L891.2,1050.9c3.3,1.4,7.2,0,8.7-3.2l42.5-88.2c1.5-3.1,0.1-6.8-3.2-8.2l0,0
	c-3.3-1.4-7.2,0-8.7,3.2l-42.5,88.2C886.4,1045.9,887.9,1049.5,891.2,1050.9z"/>
<path class="st7" d="M918.9,1062.6L918.9,1062.6c3.3,1.4,7.2,0,8.7-3.2l42.5-88.2c1.5-3.1,0.1-6.8-3.2-8.2l0,0
	c-3.3-1.4-7.2,0-8.7,3.2l-42.5,88.2C914.1,1057.5,915.6,1061.2,918.9,1062.6z"/>
<path class="st7" d="M948,1074.9L948,1074.9c3.3,1.4,7.2,0,8.7-3.2l42.5-88.2c1.5-3.1,0.1-6.8-3.2-8.2l0,0c-3.3-1.4-7.2,0-8.7,3.2
	l-42.5,88.2C943.3,1069.8,944.7,1073.5,948,1074.9z"/>
<path class="st7" d="M977.8,1087.5L977.8,1087.5c3.3,1.4,7.2,0,8.7-3.2l42.5-88.2c1.5-3.1,0.1-6.8-3.2-8.2l0,0
	c-3.3-1.4-7.2,0-8.7,3.2l-42.5,88.2C973.1,1082.4,974.5,1086.1,977.8,1087.5z"/>
<path class="st7" d="M1005.5,1099.1L1005.5,1099.1c3.3,1.4,7.2,0,8.7-3.2l42.5-88.2c1.5-3.1,0.1-6.8-3.2-8.2l0,0
	c-3.3-1.4-7.2,0-8.7,3.2l-42.5,88.2C1000.8,1094.1,1002.2,1097.8,1005.5,1099.1z"/>
<path class="st7" d="M1035.3,1111.7L1035.3,1111.7c3.3,1.4,7.2,0,8.7-3.2l42.5-88.2c1.5-3.1,0.1-6.8-3.2-8.2l0,0
	c-3.3-1.4-7.2,0-8.7,3.2l-42.5,88.2C1030.6,1106.7,1032.1,1110.4,1035.3,1111.7z"/>
<polygon class="st8" points="1169.3,966.1 1187.4,1005.5 1144.3,1001.5 1101.1,997.5 1126.2,962.1 1151.2,926.8 "/>
<rect x="1189.1" y="916.5" transform="matrix(0.4183 0.9083 -0.9083 0.4183 1562.9542 -537.4434)" class="st8" width="24" height="70"/>
</svg>
